<svg xmlns="http://www.w3.org/2000/svg" width="50" height="50" viewBox="0 0 50 50"><g transform="translate(-12.375 19.625)"><path d="M29.829,27.293l-5.92-5.92,5.92-5.92a1.8,1.8,0,0,0-2.539-2.539l-5.92,5.92-5.92-5.92a1.8,1.8,0,0,0-2.539,2.539l5.92,5.92-5.92,5.92a1.736,1.736,0,0,0,0,2.539,1.783,1.783,0,0,0,2.539,0l5.92-5.92,5.92,5.92a1.8,1.8,0,0,0,2.539,0A1.783,1.783,0,0,0,29.829,27.293Z" transform="translate(16.015 -15.984)" fill="rgba(255,255,255,0.9)"/><path d="M28.375,6.74a21.638,21.638,0,0,1,15.3,36.935,21.638,21.638,0,0,1-30.6-30.6,21.491,21.491,0,0,1,15.3-6.334m0-3.365a25,25,0,1,0,25,25,25,25,0,0,0-25-25Z" transform="translate(9 -23)" fill="rgba(255,255,255,0.9)"/></g></svg>