<svg xmlns="http://www.w3.org/2000/svg" width="93.39" height="21.06" viewBox="0 0 93.39 21.06"><path d="M32.37-1.11q0,1.26,1.62,1.26c1.05,0,1.62-.42,1.62-1.26V-19.53c0-.9-.57-1.38-1.65-1.38a2.1,2.1,0,0,0-1.83.93L19.26-3.36,6.45-20.01a2.134,2.134,0,0,0-1.86-.9c-1.05,0-1.62.48-1.62,1.38V-1.11c0,.84.54,1.26,1.59,1.26,1.08,0,1.65-.42,1.65-1.26V-15.39L17.58-.66a2.024,2.024,0,0,0,1.68.81,2.024,2.024,0,0,0,1.68-.81L32.37-15.42ZM43.2-20.91c-1.11,0-1.68.42-1.68,1.29V-1.11c0,.84.54,1.26,1.59,1.26,1.08,0,1.65-.42,1.65-1.26V-16.5L62.82-.54a2.207,2.207,0,0,0,1.59.69q1.71,0,1.71-1.26V-19.68c0-.81-.54-1.23-1.62-1.23s-1.62.42-1.62,1.23V-4.29L44.79-20.25A2.225,2.225,0,0,0,43.2-20.91ZM87.57,0c5.82,0,8.79-1.95,8.79-5.88v-5.76q0-1.26-1.62-1.26t-1.62,1.26v5.67c0,2.34-1.92,3.51-5.7,3.51H80.94c-3.84,0-5.7-1.17-5.7-3.51v-9.15c0-2.1,1.83-3.18,5.46-3.18h4.05c1.02,0,1.53-.42,1.53-1.23s-.51-1.23-1.53-1.23H80.64Q72-20.76,72-15.18v9.3C72-1.95,74.94,0,80.79,0Z" transform="translate(-2.97 20.91)" fill="#fff"/></svg>
